<mxfile host="Electron" agent="Mozilla/5.0 (Windows NT 10.0; Win64; x64) AppleWebKit/537.36 (KHTML, like Gecko) draw.io/24.7.17 Chrome/128.0.6613.36 Electron/32.0.1 Safari/537.36" version="24.7.17">
  <diagram name="第 1 页" id="e1Ukq07CfQ5l7rV-3tWX">
    <mxGraphModel dx="2074" dy="1197" grid="0" gridSize="10" guides="1" tooltips="1" connect="1" arrows="1" fold="1" page="1" pageScale="1" pageWidth="1169" pageHeight="827" math="0" shadow="0">
      <root>
        <mxCell id="0" />
        <mxCell id="1" parent="0" />
        <mxCell id="hO1goxTq8XJfppplwKrH-1" value="" style="rounded=0;whiteSpace=wrap;html=1;dashed=1;fillColor=none;" parent="1" vertex="1">
          <mxGeometry x="279" y="348.98" width="177" height="255" as="geometry" />
        </mxCell>
        <mxCell id="hO1goxTq8XJfppplwKrH-2" value="" style="dashed=0;outlineConnect=0;html=1;align=center;labelPosition=center;verticalLabelPosition=bottom;verticalAlign=top;shape=mxgraph.weblogos.github" parent="1" vertex="1">
          <mxGeometry x="330" y="241.48" width="75" height="75" as="geometry" />
        </mxCell>
        <mxCell id="hO1goxTq8XJfppplwKrH-3" style="edgeStyle=orthogonalEdgeStyle;rounded=0;orthogonalLoop=1;jettySize=auto;html=1;" parent="1" source="hO1goxTq8XJfppplwKrH-4" target="hO1goxTq8XJfppplwKrH-13" edge="1">
          <mxGeometry relative="1" as="geometry" />
        </mxCell>
        <mxCell id="hO1goxTq8XJfppplwKrH-4" value="./svc-a" style="rounded=1;whiteSpace=wrap;html=1;" parent="1" vertex="1">
          <mxGeometry x="307" y="373.48" width="120" height="60" as="geometry" />
        </mxCell>
        <mxCell id="hO1goxTq8XJfppplwKrH-5" style="edgeStyle=orthogonalEdgeStyle;rounded=0;orthogonalLoop=1;jettySize=auto;html=1;" parent="1" source="hO1goxTq8XJfppplwKrH-6" target="hO1goxTq8XJfppplwKrH-15" edge="1">
          <mxGeometry relative="1" as="geometry" />
        </mxCell>
        <mxCell id="hO1goxTq8XJfppplwKrH-6" value="./svc-b" style="rounded=1;whiteSpace=wrap;html=1;" parent="1" vertex="1">
          <mxGeometry x="307.5" y="446.48" width="120" height="60" as="geometry" />
        </mxCell>
        <mxCell id="hO1goxTq8XJfppplwKrH-7" style="edgeStyle=orthogonalEdgeStyle;rounded=0;orthogonalLoop=1;jettySize=auto;html=1;" parent="1" source="hO1goxTq8XJfppplwKrH-8" target="hO1goxTq8XJfppplwKrH-17" edge="1">
          <mxGeometry relative="1" as="geometry" />
        </mxCell>
        <mxCell id="hO1goxTq8XJfppplwKrH-8" value="./svc-c" style="rounded=1;whiteSpace=wrap;html=1;" parent="1" vertex="1">
          <mxGeometry x="307.5" y="523.48" width="120" height="60" as="geometry" />
        </mxCell>
        <mxCell id="hO1goxTq8XJfppplwKrH-9" value="" style="image;sketch=0;aspect=fixed;html=1;points=[];align=center;fontSize=12;image=img/lib/mscae/Docker.svg;" parent="1" vertex="1">
          <mxGeometry x="794" y="249.46" width="72" height="59.04" as="geometry" />
        </mxCell>
        <mxCell id="hO1goxTq8XJfppplwKrH-11" value="Repository" style="text;html=1;align=center;verticalAlign=middle;whiteSpace=wrap;rounded=0;" parent="1" vertex="1">
          <mxGeometry x="338" y="319.48" width="60" height="30" as="geometry" />
        </mxCell>
        <mxCell id="hO1goxTq8XJfppplwKrH-12" style="edgeStyle=orthogonalEdgeStyle;rounded=0;orthogonalLoop=1;jettySize=auto;html=1;" parent="1" source="hO1goxTq8XJfppplwKrH-13" target="hO1goxTq8XJfppplwKrH-20" edge="1">
          <mxGeometry relative="1" as="geometry" />
        </mxCell>
        <mxCell id="hO1goxTq8XJfppplwKrH-13" value="SVC-A" style="rounded=1;whiteSpace=wrap;html=1;" parent="1" vertex="1">
          <mxGeometry x="551.67" y="373.48" width="120" height="60" as="geometry" />
        </mxCell>
        <mxCell id="hO1goxTq8XJfppplwKrH-14" style="edgeStyle=orthogonalEdgeStyle;rounded=0;orthogonalLoop=1;jettySize=auto;html=1;" parent="1" source="hO1goxTq8XJfppplwKrH-15" target="hO1goxTq8XJfppplwKrH-21" edge="1">
          <mxGeometry relative="1" as="geometry" />
        </mxCell>
        <mxCell id="hO1goxTq8XJfppplwKrH-15" value="SVC-B" style="rounded=1;whiteSpace=wrap;html=1;" parent="1" vertex="1">
          <mxGeometry x="551.67" y="446.48" width="120" height="60" as="geometry" />
        </mxCell>
        <mxCell id="hO1goxTq8XJfppplwKrH-16" style="edgeStyle=orthogonalEdgeStyle;rounded=0;orthogonalLoop=1;jettySize=auto;html=1;" parent="1" source="hO1goxTq8XJfppplwKrH-17" target="hO1goxTq8XJfppplwKrH-22" edge="1">
          <mxGeometry relative="1" as="geometry" />
        </mxCell>
        <mxCell id="hO1goxTq8XJfppplwKrH-17" value="SVC-C" style="rounded=1;whiteSpace=wrap;html=1;" parent="1" vertex="1">
          <mxGeometry x="551.66" y="523.48" width="120" height="60" as="geometry" />
        </mxCell>
        <mxCell id="hO1goxTq8XJfppplwKrH-18" value="Pipeline" style="text;html=1;align=center;verticalAlign=middle;whiteSpace=wrap;rounded=0;" parent="1" vertex="1">
          <mxGeometry x="581.67" y="319.48" width="60" height="30" as="geometry" />
        </mxCell>
        <mxCell id="hO1goxTq8XJfppplwKrH-19" value="Image" style="text;html=1;align=center;verticalAlign=middle;whiteSpace=wrap;rounded=0;" parent="1" vertex="1">
          <mxGeometry x="800" y="319.48" width="60" height="30" as="geometry" />
        </mxCell>
        <mxCell id="hO1goxTq8XJfppplwKrH-20" value="SVC-A" style="rounded=1;whiteSpace=wrap;html=1;" parent="1" vertex="1">
          <mxGeometry x="770" y="373.48" width="120" height="60" as="geometry" />
        </mxCell>
        <mxCell id="hO1goxTq8XJfppplwKrH-21" value="SVC-B" style="rounded=1;whiteSpace=wrap;html=1;" parent="1" vertex="1">
          <mxGeometry x="770" y="446.48" width="120" height="60" as="geometry" />
        </mxCell>
        <mxCell id="hO1goxTq8XJfppplwKrH-22" value="SVC-C" style="rounded=1;whiteSpace=wrap;html=1;" parent="1" vertex="1">
          <mxGeometry x="770" y="523.48" width="120" height="60" as="geometry" />
        </mxCell>
        <mxCell id="hO1goxTq8XJfppplwKrH-25" value="&lt;div style=&quot;line-height: 19px;&quot;&gt;&lt;div style=&quot;&quot;&gt;pipeline {&lt;/div&gt;&lt;div style=&quot;&quot;&gt;&lt;span style=&quot;background-color: initial;&quot;&gt;&amp;nbsp; &amp;nbsp; stages {&lt;/span&gt;&lt;br&gt;&lt;/div&gt;&lt;div style=&quot;&quot;&gt;&amp;nbsp; &amp;nbsp; &amp;nbsp; &amp;nbsp; stage(&#39;Build&#39;) {&lt;/div&gt;&lt;div style=&quot;&quot;&gt;&amp;nbsp; &amp;nbsp; &amp;nbsp; &amp;nbsp; &amp;nbsp; &amp;nbsp; when {&lt;/div&gt;&lt;div style=&quot;&quot;&gt;&amp;nbsp; &amp;nbsp; &amp;nbsp; &amp;nbsp; &amp;nbsp; &amp;nbsp; &amp;nbsp; &amp;nbsp; changeset &quot;**/svc-*/*.*&quot;&lt;/div&gt;&lt;div style=&quot;&quot;&gt;&amp;nbsp; &amp;nbsp; &amp;nbsp; &amp;nbsp; &amp;nbsp; &amp;nbsp; }&lt;/div&gt;&lt;/div&gt;" style="text;html=1;align=left;verticalAlign=middle;whiteSpace=wrap;rounded=0;fillColor=#d5e8d4;strokeColor=#82b366;" parent="1" vertex="1">
          <mxGeometry x="514.67" y="600" width="194" height="141" as="geometry" />
        </mxCell>
        <mxCell id="hO1goxTq8XJfppplwKrH-26" value="./svc-*/Jenkinsfile" style="text;html=1;align=center;verticalAlign=middle;whiteSpace=wrap;rounded=0;" parent="1" vertex="1">
          <mxGeometry x="423" y="476.48" width="121" height="30" as="geometry" />
        </mxCell>
        <mxCell id="fwFBRJboxcq1PTu7kOMR-1" value="" style="shape=image;verticalLabelPosition=bottom;labelBackgroundColor=default;verticalAlign=top;aspect=fixed;imageAspect=0;image=https://icon.icepanel.io/Technology/svg/Jenkins.svg;" parent="1" vertex="1">
          <mxGeometry x="560.17" y="216.48" width="103" height="103" as="geometry" />
        </mxCell>
      </root>
    </mxGraphModel>
  </diagram>
</mxfile>
